<svg xmlns="http://www.w3.org/2000/svg" viewBox="0 0 1920 1080" style="enable-background:new 0 0 1920 1080" xml:space="preserve"><path style="fill:#dce7ee" d="M-15-16h1960v385H-15z"/><path d="M-38 267c22.56-11.06 89.04-12.04 222-14 130.32-1.92 210.2-3.1 312 8 200.99 21.91 206.02 61.01 341 61 100.49-.01 83.1-21.67 299-59 220.99-38.2 333.55-56.5 435-17 56.47 21.99 88.34 49.04 156 51 42.82 1.24 67-8.53 181-21 45.91-5.02 68.86-7.53 76-7 125.46 9.35 348.67 584.93 181 912-288.13 562.06-1837.41 598.71-2224-37-179.06-294.44-146.31-795 21-877z" style="fill:#b5d7e7"/><path d="M95.5 304.5c54.07 5.42 73.87 22.02 146 29 65.04 6.29 72.25-4.95 128-2 115.31 6.1 120.74 56.11 220 62 94.96 5.64 101.66-39.44 199-29 85.45 9.16 99.99 46.01 159 35 69.12-12.9 71.12-67.56 142-92 66.66-22.99 86.78 17.81 210 30 139.36 13.79 148.83-34.92 271-12 86.69 16.26 105.84 45.28 175 36 38.23-5.13 60.89-17.81 134-30 49.47-8.25 76.17-12.7 90-10 100.29 19.54 224.18 550.93 38 863-329.95 553.05-1714.43 552.63-2077-28-177.16-283.7-143.14-758.46-5-824 78.38-37.19 170-28 170-28z" style="fill:#a3c8de"/><path d="M-72 451c130.59-126.8 396.96-85.28 649-46 155.93 24.3 138.09 40.55 291 66 223.4 37.18 326.84 13.37 742 7 404.2-6.2 449.86 14.16 481 50 110.85 127.57 21.39 432.28-123 616-423.66 539.07-1690.3 507.5-2029-44-123.67-201.38-149.62-514.4-11-649z" style="fill:#78b3d3"/><path d="M-29 659c83.5-96.91 251.98-79.45 273-77 163.39 19.05 173.23 125.26 325 145 125.3 16.3 275.55-35.69 373-116 46.38-38.23 90.45-90.82 185-133 20.66-9.22 63.36-27.98 113-36 124.66-20.15 179.68 45.78 337 90 188.24 52.91 224-9.27 352 58 35.38 18.59 144.73 76.07 175 185 0 0 0 140.25-78 280-108.26 193.98-1755.96 573.72-2048-1-47.42-93.33-98.32-289.02-7-395z" style="fill:#408dbe"/><path d="M-43 927c36.67-72.23 171.19-81.96 259-66 53.09 9.65 50.73 21.71 115 36 94.48 21.01 135.85 3.01 223 6 157.38 5.4 152.58 68.57 267 61 126.7-8.38 144.96-86.64 268-81 86.88 3.98 88.07 43.48 171 44 129.95.81 149.74-96.03 252-82 76.3 10.47 109.98 70.53 217 82 16.09 1.72 38.44 3.96 67-1 47.09-8.18 63.23-27.6 104-39 23.85-6.67 77.75-21.94 101-2 36.4 31.23-3.18 148.02-37 201-123 192.68-485.41 35.77-1205 56-398.08 11.19-697.03 70.73-785-78-3.01-5.08-45.98-79.91-17-137z" style="fill:#235e92"/></svg>